                <svg xmlns="http://www.w3.org/2000/svg" viewBox="0 0 1600 1200" width="1600" height="1200" preserveAspectRatio="xMidYMid meet" style="width: 100%; height: 100%; transform: translate3d(0px, 0px, 0px);"><defs><clipPath id="__lottie_element_2"><rect width="1600" height="1200" x="0" y="0"></rect></clipPath><clipPath id="__lottie_element_4"><path d="M0,0 L1600,0 L1600,1200 L0,1200z"></path></clipPath><mask id="__lottie_element_253" mask-type="alpha"><g transform="matrix(0.99774169921875,-0.06728580594062805,0.06728580594062805,0.99774169921875,817.9129638671875,590.5659790039062)" opacity="1" style="display: block;"><g opacity="1" transform="matrix(1,0,0,1,0,0)"><path fill="rgb(26,34,73)" fill-opacity="1" d=" M146.13099670410156,276.47198486328125 C146.13099670410156,276.47198486328125 150.47000122070312,295.65399169921875 150.47000122070312,295.65399169921875 C150.47000122070312,295.65399169921875 133.6219940185547,303.06298828125 133.6219940185547,303.06298828125 C133.6219940185547,303.06298828125 114.22200012207031,303.06298828125 114.22200012207031,303.06298828125 C114.22200012207031,299.87200927734375 116.2969970703125,297.04998779296875 119.34500122070312,296.10198974609375 C119.34500122070312,296.10198974609375 128.97500610351562,293.10198974609375 128.97500610351562,293.10198974609375 C128.97500610351562,293.10198974609375 132.3459930419922,277.5299987792969 132.3459930419922,277.5299987792969 C132.3459930419922,277.5299987792969 146.13099670410156,276.47198486328125 146.13099670410156,276.47198486328125z"></path></g></g></g></g></svg>
        